<svg xmlns="http://www.w3.org/2000/svg" xmlns:xlink="http://www.w3.org/1999/xlink"><symbol id="icon-cat-pro" viewBox="0 0 134 56">
  <g>
    <path d="M123.1,5.8c1.2-1.9,2.7-3.4,4.5-4.6c1-0.7,1.6-0.7,2.2,0.6c0.8,1.9,1.5,3.9,0.9,6c-0.2,0.8-0.1,1.4,0.4,2.1
    c0.6,0.8,1.1,1.6,1.6,2.3c1.3,1.9,1.8,3.9,0.9,6.2c-0.4,1-0.4,2-0.2,3.1c0.2,1,0.2,2,0,3c-0.3,1.6-1.1,2.7-2.7,3.2
    c-1.3,0.3-2.4,0.9-3.2,2c-0.2,0.3-0.5,0.5-0.9,0.5c-1.2,0.2-4.2-2.5-4.2-3.7c0-0.2,0-0.4,0-0.6c0.1-3.6-0.1-3.9-3.4-5.4
    c-0.7-0.3-1.3-0.6-1.8-1.2c-0.6-0.8-1.4-0.7-2.3-0.4c-0.8,0.4-1.4,0.9-1.3,1.9c0.3,2.4,0.4,4.8,0.3,7.3c0,0.3,0.1,0.6,0.2,0.8
    c3.1,4.5,4.3,9.8,5.8,14.9c1.2,3.9,3.4,6,7.4,6.3c0.6,0,1.3,0.2,1.9,0.3c1.8,0.3,2.9,1.5,3.4,3.2c0.7,2.1,0.3,2.6-1.8,2.6
    c-2.2,0-4.3,0-6.5,0c-0.9,0-1.6-0.2-2.3-0.8c-1-1-2.2-1.4-3.4-2c-1.3-0.6-2.6-1.3-3.4-2.6c-1.1-1.7-2.6-3.1-4-4.5
    c-2.8-2.9-5.8-5.7-8.4-8.7c-1.9-2.2-3.2-4.6-3.2-7.6c0-0.9-0.2-1.3-1.2-0.9c-0.3,0.2-0.7,0.3-1,0.3c-2.8,0-4.2,1.7-5.2,4.2
    c-0.9,2.1-2.1,4.1-3.2,6.2C88.5,40.9,88,42.4,88,44c0,2.4,0.6,3.2,2.8,4c1.4,0.5,2.7,1,3.4,2.4c0.8,1.6,0.6,2-1.1,2.1
    c-2.3,0-4.5,0-6.8,0c-0.9,0-1.5-0.3-1.9-1.1c-0.6-1-1.2-2-1.8-3c-1-1.7-1.4-3.4-0.7-5.4c0.6-1.7,0.3-3.6,0.1-5.3
    c-0.4-2.6,0-4.9,1.7-7c0.6-0.7,0.6-1-0.4-1.2c-4.1-0.8-8-2.3-11.8-4.1c0,0-0.1,0-0.1-0.1c-3.2-1.2-3.8-1-4.7,2.3
    c-0.8,2.8-1.6,5.6-2.2,8.5c-0.7,3.2,0.1,6.2,1.1,9.2c0.4,1.2,1.6,1.1,2.5,1.4c2,0.6,3.7,1.4,4.5,3.5c0.7,1.6,0.6,1.8-1.1,1.8
    c-1.7,0-3.4-0.1-5.2,0c-1.6,0.1-2.8-0.5-4.2-1.4c-4.8-3.2-6.2-8.1-6.6-13.4c-0.2-3.3-2-5.9-4.1-8.4c-0.4-0.5-0.8-0.7-1.4-0.3
    c-2.1,1.3-4.5,2.1-6.7,3c-4.8,1.8-9,4.6-12.2,8.8c-1.2,1.5-1.9,3.2-2.2,5.1c-0.3,1.8,0.2,2.6,2,3.1c1.9,0.6,2.7,1.5,2.9,3.4
    c0.1,0.8-0.2,1.2-1,1.2c-2.7,0-5.4,0-8.1,0c-0.6,0-1-0.4-1.3-0.8c-1.3-1.6-1.9-3.5-1.9-5.5c-0.1-3.5,0.3-6.9,0.9-10.3
    c0.4-2.1,1.4-3.8,3.4-4.8c5.9-2.8,9-8.1,11.8-13.6c0.6-1.1,0.1-1.3-0.9-1.2c-2.9,0.3-5.4,1.6-7.7,3.2c-3,2.1-5.7,4.6-8.3,7.1
    c-2.9,2.7-6.2,4.6-10.3,4.9C3.1,32.5-0.3,28.4,0,21.8c0.1-2.3,0.9-4.4,2.4-6.1c1.2-1.3,2.6-2,4.5-1.5c1.5,0.4,1.9,1.2,1.3,2.7
    c-0.3,0.6-0.7,1.1-1,1.7c-0.4,0.6-0.8,1.3-1,2c-1.1,3,0.4,5.1,3.5,5.4c3.3,0.3,6-1.1,8.5-3.1c3-2.4,5.7-5.2,8-8.3
    c3.7-4.8,8.5-7.3,14.4-8.1c2.3-0.3,4.3-1.3,6.5-1.9c4.1-1.2,8.3-1.9,12.7-1.8c2,0.1,3.9-0.3,5.8-1.1c4.9-2,10-2,15.1-1
    c4,0.8,8,1.8,11.9,2.8c2.2,0.5,4.7,0.3,7-0.2c4.4-1,8.9-1.9,13.4-2c3-0.1,5.9,0.4,8.6,1.7C123.6,3.9,123.6,3.9,123.1,5.8z"/>
  </g>
</symbol><symbol id="icon-cat-slim" viewBox="0 0 70 97">
  <g>
    <path d="M54.8,0c-0.1,0-0.3,0-0.4,0c-0.7,0.4-1.1,0.9-1.4,1.6c-0.6,1.1-1,2.3-1.3,3.4c-0.2,0.8-0.7,1.2-1.5,1.3
    c-2.3,0.4-4,1.7-5.2,3.7c-0.7,1.3-1.3,2.6-1.8,3.9c-1.4,3.7-2.5,7.5-3.8,11.2C38.7,27,38.6,27,36.7,27c-2.3,0-2.1-0.4-2.1,2.1
    c0,0.8,0.2,1.2,1.1,1.2c0.3,0,0.7-0.1,0.8,0.2c0.1,0.3-0.2,0.5-0.4,0.7c-1.2,1.3-2.7,2-4.3,2.4c-1.9,0.5-3.8,0.9-5.7,1.5
    c-4.7,1.6-9.1,3.8-12.6,7.6c-2.1,2.3-3.5,5-4.7,7.8C5,59.2,3.2,68.3,1.8,77.5c-0.6,4.3-1.1,8.6-1.5,13C0.2,92.7,0,94.8,0,97
    c11.1,0,22.2,0,33.3,0c0.1-0.5-0.1-0.9-0.2-1.3c-0.7-1.8-2.1-2.7-3.8-3.1c-0.7-0.2-0.8-0.4-0.4-0.9c0.7-0.9,1.2-2,1.6-3.1
    c1.6-4.8,2.3-9.8,3.1-14.8C34.2,70,35.1,66.4,37,63c1.5-2.5,3.3-4.6,5.6-6.4c0.8-0.6,0.9-0.6,1,0.4c0.1,0.7,0.1,1.4,0.2,2.2
    c0.3,4.7,0.3,9.5-0.2,14.2c-0.3,3.7-0.5,7.4-0.2,11c0.4,4.3,1.2,8.4,2.2,12.6c4.4,0,8.9,0,13.3,0c-0.3-2.2-2.1-4-4.2-4.4
    c-1.3-0.2-2.5-0.1-3.8,0.2c-0.6,0.1-0.8,0-0.9-0.6c-0.4-5.3-0.1-10.6,1-15.8c1.3-6,2.4-12.1,3.1-18.2c0.3-2.5,1-4.8,2.3-7
    c1.2-2.1,2.2-4.3,3.4-6.5c0.9-1.7,1.1-3.4,0.4-5.2c-0.3-0.7-0.5-1.4-0.9-2.1c-1-2-2-3.9-2.9-5.9c-0.5-1-0.4-1.1,0.7-1.1
    c1.6,0,1.6,0,1.7-1.6c0-0.2,0-0.4,0-0.7c0-0.7-0.3-1.1-1-1c-0.5,0-1,0-1.5,0c-0.7,0-0.9-0.3-0.7-1c0.6-2.3,2.8-4.1,5.1-4.4
    c2.2-0.3,4.4,0,6.6,0.4c0.6,0.1,1,0,1.3-0.6c0.4-1,0.8-2,1.3-3c0.2-0.4,0.2-0.8-0.1-1.1C66.6,13.2,63.1,9.4,58.4,7
    c-0.5-0.3-0.8-0.6-0.9-1.1c-0.3-1.4-0.7-2.8-1.3-4.2C55.9,1,55.6,0.4,54.8,0z"/>
  </g>
</symbol><symbol id="icon-close" viewBox="0 0 18 18">
  <polygon points="18,1.3 16.7,0 9,7.7 1.3,0 0,1.3 7.7,9 0,16.7 1.3,18 9,10.3 16.7,18 18,16.7 10.3,9 "/>
</symbol><symbol id="icon-email" viewBox="0 0 17 13"><title>icon-email</title><path d="M15.6,11.6H1.4V5.8H0V13H17V5.8H15.6ZM0,0V2.3L8.5,9.4,17,2.3V0ZM15.6,1.6,8.5,7.5,1.4,1.6V1.4H15.6Z"/></symbol><symbol id="icon-menu-close" viewBox="0 0 18 18"><title>icon-menu-close</title><polygon points="18 1.3 16.7 0 9 7.7 1.3 0 0 1.3 7.7 9 0 16.7 1.3 18 9 10.3 16.7 18 18 16.7 10.3 9 18 1.3"/></symbol><symbol id="icon-menu-open" viewBox="0 0 24 18"><title>icon_menu-open</title><rect y="16" width="24" height="2"/><rect y="8" width="24" height="2"/><rect width="24" height="2"/></symbol><symbol id="icon-mobile-menu" viewBox="0 0 24 18">
  <rect y="16" width="24" height="2"/>
  <rect y="8" width="24" height="2"/>
  <rect width="24" height="2"/>
</symbol><symbol id="icon-phone" viewBox="0 0 19.96 19.93"><title>icon-phone</title><path d="M17.91,9.41H9.41v1.2h8.5l-2.1,2.1.9.9,3.1-3.1a.75.75,0,0,0,0-.9l-3.1-3.1-.9.9Z"/><path d="M8.11,19.41v-6.2a.65.65,0,0,0-.6-.6H3.11a1.22,1.22,0,0,0,1.2,1.2h2.5v5H3.11a1.79,1.79,0,0,1-1.9-1.7v-14a1.77,1.77,0,0,1,1.7-1.8h3.9v5H4.41a1.22,1.22,0,0,0-1.2,1.2h4.4a.65.65,0,0,0,.6-.6V.61a.86.86,0,0,0-.7-.6H3.11A3,3,0,0,0,0,2.91v13.9a2.89,2.89,0,0,0,2.9,3.1h4.6A.5.5,0,0,0,8.11,19.41Z"/></symbol><symbol id="icon-plus-mobile" viewBox="0 0 30 30">
  <style type="text/css">
    .st0 {
      fill: #231F20;
    }
  </style>
  <polygon class="st0" points="30,14 16,14 16,0 14,0 14,14 0,14 0,16 14,16 14,30 16,30 16,16 30,16 "/>
</symbol><symbol id="icon-plus" viewBox="0 0 60 60">
  <style type="text/css">
    .st0 {
      fill: #231F20;
    }
  </style>
  <polygon class="st0" points="60,29.5 30.5,29.5 30.5,0 29.5,0 29.5,29.5 0,29.5 0,30.5 29.5,30.5 29.5,60 30.5,60 30.5,30.5
  60,30.5 "/>
</symbol><symbol id="icon-right-arrow-long" viewBox="0 0 24.2 11">
  <style type="text/css">
    .st0 {
      fill: #3F4242;
    }
  </style>
  <polygon class="st0" points="17.6,0 24.2,5.5 17.6,11 17.6,6.6 0,6.6 0,4.4 17.6,4.4 "/>
</symbol><symbol id="icon-right-arrow-verylong" viewBox="0 0 32 11">
  <style type="text/css">
    .st0 {
      fill: #3F4242;
    }
  </style>
  <polygon class="st0" points="25.4,0 32,5.5 25.4,11 25.4,6.6 0,6.6 0,4.4 25.4,4.4 "/>
</symbol><symbol id="icon-social-fb" viewBox="0 0 13.52 27.75"><title>icon-social-fb</title><path d="M9.53,27.75H2.72V14.84H0V8.47H2.63c-.2-2.89.3-5,1.52-6.44A6.21,6.21,0,0,1,8.74,0h4.78V6.15H9.76a6.55,6.55,0,0,0-.25,2.32h4v6.38h-4Zm-5.31-1.5H8V13.34h4V10H8l0-.73c0-2,0-3.79,1-4.46l.19-.13H12V1.5H8.78A4.67,4.67,0,0,0,5.29,3c-1,1.23-1.41,3.29-1.1,6.14l.1.83H1.5v3.38H4.22Z"/></symbol><symbol id="icon-social-insta" viewBox="0 0 22.99 23"><title>icon-social-insta</title><path d="M17,1.5A4.51,4.51,0,0,1,21.49,6V17A4.51,4.51,0,0,1,17,21.5H6A4.51,4.51,0,0,1,1.5,17V6A4.51,4.51,0,0,1,6,1.5H17M17,0H6A6,6,0,0,0,0,6V17a6,6,0,0,0,6,6H17a6,6,0,0,0,6-6V6a6,6,0,0,0-6-6Z" fill="#231f20"/><path d="M11.49,7.08a4.43,4.43,0,1,1-4.43,4.43,4.43,4.43,0,0,1,4.43-4.43m0-1.5a5.93,5.93,0,1,0,5.93,5.93,5.93,5.93,0,0,0-5.93-5.93Z" fill="#231f20"/><circle cx="17.63" cy="5.38" r="1.34" fill="#231f20"/></symbol><symbol id="icon-social-vk" viewBox="0 0 30 15.76"><title>icon-social-vk</title><path d="M23.94,15.76a4.05,4.05,0,0,1-2.08-.63,10.17,10.17,0,0,1-1.78-1.53c-.44-.44-1.17-1.18-1.45-1.18s-.48.92-.47,1.57a1.7,1.7,0,0,1-.47,1.21,2.26,2.26,0,0,1-1.22.5H14.55a11.29,11.29,0,0,1-7.43-3C3.44,9.33.28,2.89.15,2.61A1.34,1.34,0,0,1,.3,1.13,2.07,2.07,0,0,1,1.66.65l4.08,0h.12a2.47,2.47,0,0,1,1,.35,1.77,1.77,0,0,1,.62.73A22.09,22.09,0,0,0,8.92,4.4c1.31,2,1.89,2.45,2.1,2.56a8.12,8.12,0,0,0,.19-2.87A2.58,2.58,0,0,0,11,2.81a1.33,1.33,0,0,0-.77-.29l-.73-.69C9.36,1.17,10.09.6,10.6.38A8.73,8.73,0,0,1,13.75,0h.71A9,9,0,0,1,16.61.2c1.7.36,1.64,1.73,1.57,3.31,0,.46-.05,1-.05,1.62,0,.15,0,.31,0,.48a4.11,4.11,0,0,0,.09,1.3,9.09,9.09,0,0,0,2.07-2.48,20.39,20.39,0,0,0,1.52-2.8h0A1.59,1.59,0,0,1,23.42.68l4.27,0a2,2,0,0,1,.38,0c1,0,1.59.29,1.83.85s.17,1.66-2.36,4.61l-1,1.13a6.87,6.87,0,0,0-1.23,1.59A6.52,6.52,0,0,0,26.58,10a14,14,0,0,1,3,3.07,1.6,1.6,0,0,1,.26,1.68,2.3,2.3,0,0,1-1.88,1l-3.79.05Zm-5.31-4.84c.9,0,1.68.78,2.51,1.62a8.63,8.63,0,0,0,1.5,1.3,2.63,2.63,0,0,0,1.4.42h.1l3.8-.05a1.43,1.43,0,0,0,.54-.14l-.1-.16a13.22,13.22,0,0,0-2.68-2.72c-1.19-1-1.8-1.47-1.87-2.25s.49-1.43,1.61-2.7l1-1.11a10.73,10.73,0,0,0,2.05-2.95,5.66,5.66,0,0,0-.67,0l-4.37,0a.55.55,0,0,0-.24,0,20.5,20.5,0,0,1-1.65,3.05c-1.89,2.82-2.78,3.2-3.41,3.2a1.19,1.19,0,0,1-.56-.14c-1-.57-1-1.84-.94-2.76,0-.15,0-.3,0-.43,0-.65,0-1.21.05-1.69.08-1.68,0-1.69-.38-1.78a8.56,8.56,0,0,0-1.86-.16h-.69a13,13,0,0,0-1.9.1,1.18,1.18,0,0,1,.25.25A3.81,3.81,0,0,1,12.71,4c.13,1.65.06,3.8-1,4.31a1.26,1.26,0,0,1-.6.14c-.93,0-1.85-.88-3.42-3.27A22.89,22.89,0,0,1,6.08,2.34L6,2.24a1.21,1.21,0,0,0-.32-.11l-4,0H1.61C2.2,3.35,5,8.75,8.13,11.58a9.94,9.94,0,0,0,6.42,2.62H16.4a1,1,0,0,0,.27-.1s0,0,0-.1c0-.26,0-2.59,1.58-3A1.67,1.67,0,0,1,18.63,10.92Z"/></symbol><symbol id="icon-tick" viewBox="0 0 21.1 15.5">
  <polygon points="20.1,0 7.7,13.3 1,6.1 0,7.2 7.6,15.4 7.7,15.5 21,1.2 21.1,1.1 "/>
</symbol><symbol id="icon-two-gift" viewBox="0 0 55.48 59.95"><title>icon-gift</title><path d="M52.35,12.17h-7a7.77,7.77,0,0,0,.45-8.11A7.75,7.75,0,0,0,35.34.94c-3.61,2-6.17,6.11-7.6,9-1.43-2.9-4-7.06-7.6-9a7.74,7.74,0,0,0-10,11.23h-7A3.14,3.14,0,0,0,0,15.3v9.38a3.14,3.14,0,0,0,3.13,3.14H4v26.1a6,6,0,0,0,6,6H45.48a6,6,0,0,0,6-6V27.82h.84a3.14,3.14,0,0,0,3.13-3.14V15.3A3.14,3.14,0,0,0,52.35,12.17ZM36.48,3.05A5.33,5.33,0,0,1,42,12.17H29.35C30.48,9.64,33,5,36.48,3.05ZM11.75,5.21A5.35,5.35,0,0,1,19,3.05c3.52,1.91,6,6.59,7.13,9.12H13.49A5.33,5.33,0,0,1,11.75,5.21ZM26.54,27.82V41.49H6.36V27.82ZM6.36,53.92v-10H26.54V57.55H10A3.63,3.63,0,0,1,6.36,53.92Zm39.12,3.63H28.94V43.89H49.11v10A3.62,3.62,0,0,1,45.48,57.55Zm3.63-16.06H28.94V27.82H49.11Zm4-16.81a.74.74,0,0,1-.73.74H3.13a.74.74,0,0,1-.73-.74V15.3a.75.75,0,0,1,.73-.73H52.35a.75.75,0,0,1,.73.73Z"/></symbol></svg>